<svg class="main-svg" xmlns="http://www.w3.org/2000/svg" xmlns:xlink="http://www.w3.org/1999/xlink" width="743.395" height="800" style="" viewBox="0 0 743.395 800"><rect x="0" y="0" width="743.395" height="800" style="fill: rgb(255, 255, 255); fill-opacity: 1;"/><defs id="defs-873672"><g class="clips"/><g class="gradients"><linearGradient x1="1" x2="0" y1="0" y2="0" id="g873672-cbcoloraxis"><stop offset="0%" stop-color="rgb(22, 148, 133)" stop-opacity="1"/><stop offset="50%" stop-color="rgb(241, 241, 241)" stop-opacity="1"/><stop offset="100%" stop-color="rgb(59, 82, 255)" stop-opacity="1"/></linearGradient></g><g class="patterns"/></defs><g class="bglayer"/><g class="layer-below"><g class="imagelayer"/><g class="shapelayer"/></g><g class="cartesianlayer"/><g class="polarlayer"/><g class="smithlayer"/><g class="ternarylayer"/><g class="geolayer"/><g class="funnelarealayer"/><g class="pielayer"/><g class="iciclelayer"/><g class="treemaplayer"/><g class="sunburstlayer"><g class="trace sunburst" stroke-linejoin="round" style="opacity: 1;"><g class="slice"><path class="surface" d="M371.5,370.5A0,0 0,1,0 371.5,370.5A0,0 0,1,0 371.5,370.5ZM481.66666666666663,370.5A110.16666666666666,110.16666666666666 0,1,1 261.33333333333337,370.5A110.16666666666666,110.16666666666666 0,1,1 481.66666666666663,370.5Z" style="pointer-events: none; stroke-width: 1; fill: rgb(241, 241, 241); fill-opacity: 1; stroke: rgb(0, 0, 0); stroke-opacity: 1;"/><g class="slicetext"><text data-notex="1" class="slicetext" text-anchor="middle" x="0" y="0" style="font-family: 'Open Sans'; font-size: 12px; fill: rgb(68, 68, 68); fill-opacity: 1; white-space: pre;" transform="translate(371.34020233154297,375.04474449157715)">Open Sustainable Technology</text></g></g><g class="slice cursor-pointer"><path class="surface" d="M481.66666666666663,370.5L591.8333333333333,370.5A220.33333333333331,220.33333333333331 0,0,0 445.48828395031836,162.96081908260112L408.4941419751592,266.73040954130056A110.16666666666666,110.16666666666666 0,0,1 481.66666666666663,370.5Z" style="pointer-events: none; stroke-width: 1; fill: rgb(228, 230, 242); fill-opacity: 1; stroke: rgb(0, 0, 0); stroke-opacity: 1;"/><g class="slicetext"><text data-notex="1" class="slicetext" text-anchor="middle" x="0" y="0" style="font-family: 'Open Sans'; font-size: 12px; fill: rgb(68, 68, 68); fill-opacity: 1; white-space: pre;" transform="translate(509.04958365098526,279.0687167212117)rotate(-35.18935516888439)">Earth Systems</text></g></g><g class="slice cursor-pointer"><path class="surface" d="M408.4941419751592,266.73040954130056L445.48828395031836,162.96081908260112A220.33333333333331,220.33333333333331 0,0,0 234.04529642999464,198.2995869799967L302.77264821499733,284.39979348999833A110.16666666666666,110.16666666666666 0,0,1 408.4941419751592,266.73040954130056Z" style="pointer-events: none; stroke-width: 1; fill: rgb(239, 239, 241); fill-opacity: 1; stroke: rgb(0, 0, 0); stroke-opacity: 1;"/><g class="slicetext"><text data-notex="1" class="slicetext" text-anchor="middle" x="0" y="0" style="font-family: 'Open Sans'; font-size: 12px; fill: rgb(68, 68, 68); fill-opacity: 1; white-space: pre;" transform="translate(339.79116358255834,208.34584466512322)rotate(80.51177072671442)">Natural Resources</text></g></g><g class="slice cursor-pointer"><path class="surface" d="M302.77264821499733,284.39979348999833L234.04529642999464,198.2995869799967A220.33333333333331,220.33333333333331 0,0,0 151.35914608142346,361.292274234225L261.4295730407117,365.8961371171125A110.16666666666666,110.16666666666666 0,0,1 302.77264821499733,284.39979348999833Z" style="pointer-events: none; stroke-width: 1; fill: rgb(229, 236, 235); fill-opacity: 1; stroke: rgb(0, 0, 0); stroke-opacity: 1;"/><g class="slicetext"><text data-notex="1" class="slicetext" text-anchor="middle" x="0" y="0" style="font-family: 'Open Sans'; font-size: 12px; fill: rgb(68, 68, 68); fill-opacity: 1; white-space: pre;" transform="translate(223.12891254565108,297.7529683117916)scale(0.49480657696834873)rotate(26.898669396110563)">Consumption of Energy and Resources</text></g></g><g class="slice cursor-pointer"><path class="surface" d="M261.4295730407117,365.8961371171125L151.35914608142346,361.292274234225A220.33333333333331,220.33333333333331 0,0,0 218.0985419683024,528.6605843803288L294.79927098415124,449.5802921901644A110.16666666666666,110.16666666666666 0,0,1 261.4295730407117,365.8961371171125Z" style="pointer-events: none; stroke-width: 1; fill: rgb(240, 240, 241); fill-opacity: 1; stroke: rgb(0, 0, 0); stroke-opacity: 1;"/><g class="slicetext"><text data-notex="1" class="slicetext" text-anchor="middle" x="0" y="0" style="font-family: 'Open Sans'; font-size: 12px; fill: rgb(68, 68, 68); fill-opacity: 1; white-space: pre;" transform="translate(219.2893688977712,434.8137229822321)scale(0.7395781627935355)rotate(-21.74002047082911)">Climate and Earth Science</text></g></g><g class="slice cursor-pointer"><path class="surface" d="M294.79927098415124,449.5802921901644L218.0985419683024,528.6605843803288A220.33333333333331,220.33333333333331 0,0,0 381.7694255293218,590.5938815075864L376.6347127646609,480.5469407537932A110.16666666666666,110.16666666666666 0,0,1 294.79927098415124,449.5802921901644Z" style="pointer-events: none; stroke-width: 1; fill: rgb(218, 231, 230); fill-opacity: 1; stroke: rgb(0, 0, 0); stroke-opacity: 1;"/><g class="slicetext"><text data-notex="1" class="slicetext" text-anchor="middle" x="0" y="0" style="font-family: 'Open Sans'; font-size: 12px; fill: rgb(68, 68, 68); fill-opacity: 1; white-space: pre;" transform="translate(317.3089070473726,526.5520819006293)rotate(-69.2732855680656)">Energy Systems</text></g></g><g class="slice cursor-pointer"><path class="surface" d="M376.6347127646609,480.5469407537932L381.7694255293218,590.5938815075864A220.33333333333331,220.33333333333331 0,0,0 495.855022205163,552.3862453021976L433.6775111025815,461.4431226510988A110.16666666666666,110.16666666666666 0,0,1 376.6347127646609,480.5469407537932Z" style="pointer-events: none; stroke-width: 1; fill: rgb(233, 234, 242); fill-opacity: 1; stroke: rgb(0, 0, 0); stroke-opacity: 1;"/><g class="slicetext"><text data-notex="1" class="slicetext" text-anchor="middle" x="0" y="0" style="font-family: 'Open Sans'; font-size: 12px; fill: rgb(68, 68, 68); fill-opacity: 1; white-space: pre;" transform="translate(419.59126805701567,528.4086247744126)rotate(71.48413510747184)">Renewable Energy</text></g></g><g class="slice cursor-pointer"><path class="surface" d="M433.6775111025815,461.4431226510988L495.855022205163,552.3862453021976A220.33333333333331,220.33333333333331 0,0,0 555.1665553870431,492.2102058581613L463.33327769352155,431.35510292908066A110.16666666666666,110.16666666666666 0,0,1 433.6775111025815,461.4431226510988Z" style="pointer-events: none; stroke-width: 1; fill: rgb(217, 231, 229); fill-opacity: 1; stroke: rgb(0, 0, 0); stroke-opacity: 1;"/><g class="slicetext"><text data-notex="1" class="slicetext" text-anchor="middle" x="0" y="0" style="font-family: 'Open Sans'; font-size: 12px; fill: rgb(68, 68, 68); fill-opacity: 1; white-space: pre;" transform="translate(486.6962800882631,488.8052366677169)scale(0.7465477739746434)rotate(44.58546571136128)">Sustainable Development</text></g></g><g class="slice cursor-pointer"><path class="surface" d="M463.33327769352155,431.35510292908066L555.1665553870431,492.2102058581613A220.33333333333331,220.33333333333331 0,0,0 579.6272512143992,442.8175295465503L475.5636256071996,406.65876477327515A110.16666666666666,110.16666666666666 0,0,1 463.33327769352155,431.35510292908066Z" style="pointer-events: none; stroke-width: 1; fill: rgb(226, 228, 242); fill-opacity: 1; stroke: rgb(0, 0, 0); stroke-opacity: 1;"/><g class="slicetext"><text data-notex="1" class="slicetext" text-anchor="middle" x="0" y="0" style="font-family: 'Open Sans'; font-size: 12px; fill: rgb(68, 68, 68); fill-opacity: 1; white-space: pre;" transform="translate(521.0063404943911,449.611425545453)rotate(26.345957011258974)">Emissions</text></g></g><g class="slice cursor-pointer"><path class="surface" d="M475.5636256071996,406.65876477327515L579.6272512143992,442.8175295465503A220.33333333333331,220.33333333333331 0,0,0 588.9917191434664,405.7722253593008L480.2458595717332,388.1361126796504A110.16666666666666,110.16666666666666 0,0,1 475.5636256071996,406.65876477327515Z" style="pointer-events: none; stroke-width: 1; fill: rgb(212, 216, 243); fill-opacity: 1; stroke: rgb(0, 0, 0); stroke-opacity: 1;"/><g class="slicetext"><text data-notex="1" class="slicetext" text-anchor="middle" x="0" y="0" style="font-family: 'Open Sans'; font-size: 12px; fill: rgb(68, 68, 68); fill-opacity: 1; white-space: pre;" transform="translate(530.3548550592002,415.3436993351383)rotate(14.186284544524028)">Industrial Ecology</text></g></g><g class="slice cursor-pointer"><path class="surface" d="M480.2458595717332,388.1361126796504L588.9917191434664,405.7722253593008A220.33333333333331,220.33333333333331 0,0,0 591.8333333333333,370.50000000000006L481.66666666666663,370.5A110.16666666666666,110.16666666666666 0,0,1 480.2458595717332,388.1361126796504Z" style="pointer-events: none; stroke-width: 1; fill: rgb(238, 238, 241); fill-opacity: 1; stroke: rgb(0, 0, 0); stroke-opacity: 1;"/><g class="slicetext"><text data-notex="1" class="slicetext" text-anchor="middle" x="0" y="0" style="font-family: 'Open Sans'; font-size: 12px; fill: rgb(68, 68, 68); fill-opacity: 1; white-space: pre;" transform="translate(540.7886250595617,388.69776243068156)rotate(4.605936540429866)">Energy Storage</text></g></g><g class="slice cursor-pointer"><path class="surface" d="M591.8333333333333,370.5L702,370.5A330.5,330.5 0,0,0 646.9998330805647,187.93469121275803L555.1665553870431,248.78979414183868A220.33333333333331,220.33333333333331 0,0,1 591.8333333333333,370.5Z" style="pointer-events: none; stroke-width: 1; fill: rgb(225, 227, 242); fill-opacity: 1; stroke: rgb(0, 0, 0); stroke-opacity: 1;"/><g class="slicetext"><text data-notex="1" class="slicetext" text-anchor="middle" x="0" y="0" style="font-family: 'Open Sans'; font-size: 12px; fill: rgb(68, 68, 68); fill-opacity: 1; white-space: pre;" transform="translate(636.3395706645316,295.4601497674422)rotate(-16.765609007164812)">Biosphere</text></g></g><g class="slice cursor-pointer"><path class="surface" d="M555.1665553870431,248.78979414183868L646.9998330805647,187.93469121275803A330.5,330.5 0,0,0 558.0325333077446,97.6706320467037L495.8550222051631,188.6137546978025A220.33333333333331,220.33333333333331 0,0,1 555.1665553870431,248.78979414183868Z" style="pointer-events: none; stroke-width: 1; fill: rgb(237, 239, 239); fill-opacity: 1; stroke: rgb(0, 0, 0); stroke-opacity: 1;"/><g class="slicetext"><text data-notex="1" class="slicetext" text-anchor="middle" x="0" y="0" style="font-family: 'Open Sans'; font-size: 12px; fill: rgb(68, 68, 68); fill-opacity: 1; white-space: pre;" transform="translate(570.7615236081022,180.48236318510058)rotate(-44.58546571136128)">Hydrosphere</text></g></g><g class="slice cursor-pointer"><path class="surface" d="M495.8550222051631,188.6137546978025L558.0325333077446,97.6706320467037A330.5,330.5 0,0,0 519.5994534925959,75.03967800194482L470.2329689950639,173.52645200129658A220.33333333333331,220.33333333333331 0,0,1 495.8550222051631,188.6137546978025Z" style="pointer-events: none; stroke-width: 1; fill: rgb(202, 207, 244); fill-opacity: 1; stroke: rgb(0, 0, 0); stroke-opacity: 1;"/><g class="slicetext"><text data-notex="1" class="slicetext" text-anchor="middle" x="0" y="0" style="font-family: 'Open Sans'; font-size: 12px; fill: rgb(68, 68, 68); fill-opacity: 1; white-space: pre;" transform="translate(515.0898677667944,135.60490667434848)rotate(-59.50870010235417)">Cryosphere</text></g></g><g class="slice cursor-pointer"><path class="surface" d="M470.2329689950639,173.52645200129658L519.5994534925959,75.03967800194482A330.5,330.5 0,0,0 482.4824259254776,59.19122862390162L445.4882839503184,162.96081908260112A220.33333333333331,220.33333333333331 0,0,1 470.2329689950639,173.52645200129658Z" style="pointer-events: none; stroke-width: 1; fill: rgb(217, 220, 243); fill-opacity: 1; stroke: rgb(0, 0, 0); stroke-opacity: 1;"/><g class="slicetext"><text data-notex="1" class="slicetext" text-anchor="middle" x="0" y="0" style="font-family: 'Open Sans'; font-size: 12px; fill: rgb(68, 68, 68); fill-opacity: 1; white-space: pre;" transform="translate(483.781546628273,119.11035772414358)rotate(-66.87819856704198)">Atmosphere</text></g></g><g class="slice cursor-pointer"><path class="surface" d="M445.48828395031836,162.96081908260112L482.48242592547757,59.19122862390162A330.5,330.5 0,0,0 372.0313694599227,40.00042716140001L371.85424630661515,150.16695144093336A220.33333333333331,220.33333333333331 0,0,1 445.48828395031836,162.96081908260112Z" style="pointer-events: none; stroke-width: 1; fill: rgb(229, 230, 242); fill-opacity: 1; stroke: rgb(0, 0, 0); stroke-opacity: 1;"/><g class="slicetext"><text data-notex="1" class="slicetext" text-anchor="middle" x="0" y="0" style="font-family: 'Open Sans'; font-size: 12px; fill: rgb(68, 68, 68); fill-opacity: 1; white-space: pre;" transform="translate(422.02880071284466,99.8889901405838)scale(0.7609872213315706)rotate(-80.1432958034801)">Water Supply and Quality</text></g></g><g class="slice cursor-pointer"><path class="surface" d="M371.85424630661515,150.16695144093336L372.0313694599227,40.00042716140001A330.5,330.5 0,0,0 302.40407817749923,47.30345981508577L325.43605211833284,155.03563987672388A220.33333333333331,220.33333333333331 0,0,1 371.85424630661515,150.16695144093336Z" style="pointer-events: none; stroke-width: 1; fill: rgb(234, 238, 237); fill-opacity: 1; stroke: rgb(0, 0, 0); stroke-opacity: 1;"/><g class="slicetext"><text data-notex="1" class="slicetext" text-anchor="middle" x="0" y="0" style="font-family: 'Open Sans'; font-size: 12px; fill: rgb(68, 68, 68); fill-opacity: 1; white-space: pre;" transform="translate(339.2682906779042,96.98433223817315)scale(0.7754017285122021)rotate(84.0122824974411)">Agriculture and Nutrition</text></g></g><g class="slice cursor-pointer"><path class="surface" d="M325.43605211833284,155.03563987672388L302.40407817749923,47.30345981508577A330.5,330.5 0,0,0 235.87720482401414,69.10871374797085L281.08480321600945,169.57247583198057A220.33333333333331,220.33333333333331 0,0,1 325.43605211833284,155.03563987672388Z" style="pointer-events: none; stroke-width: 1; fill: rgb(238, 240, 240); fill-opacity: 1; stroke: rgb(0, 0, 0); stroke-opacity: 1;"/><g class="slicetext"><text data-notex="1" class="slicetext" text-anchor="middle" x="0" y="0" style="font-family: 'Open Sans'; font-size: 12px; fill: rgb(68, 68, 68); fill-opacity: 1; white-space: pre;" transform="translate(281.43297038792065,110.30106939057453)rotate(71.85261003070627)">Soil and Land</text></g></g><g class="slice cursor-pointer"><path class="surface" d="M281.08480321600945,169.57247583198057L235.87720482401414,69.10871374797085A330.5,330.5 0,0,0 187.60799464267475,95.88394008058913L248.90532976178318,187.42262672039277A220.33333333333331,220.33333333333331 0,0,1 281.08480321600945,169.57247583198057Z" style="pointer-events: none; stroke-width: 1; fill: rgb(230, 232, 242); fill-opacity: 1; stroke: rgb(0, 0, 0); stroke-opacity: 1;"/><g class="slicetext"><text data-notex="1" class="slicetext" text-anchor="middle" x="0" y="0" style="font-family: 'Open Sans'; font-size: 12px; fill: rgb(68, 68, 68); fill-opacity: 1; white-space: pre;" transform="translate(233.93840530664102,131.87911135804111)rotate(60.98259979529166)">Air Quality</text></g></g><g class="slice cursor-pointer"><path class="surface" d="M248.90532976178318,187.42262672039277L187.60799464267475,95.88394008058913A330.5,330.5 0,0,0 165.31794464499183,112.1993804699951L234.04529642999458,198.29958697999675A220.33333333333331,220.33333333333331 0,0,1 248.90532976178318,187.42262672039277Z" style="pointer-events: none; stroke-width: 1; fill: rgb(207, 227, 224); fill-opacity: 1; stroke: rgb(0, 0, 0); stroke-opacity: 1;"/><g class="slicetext"><text data-notex="1" class="slicetext" text-anchor="middle" x="0" y="0" style="font-family: 'Open Sans'; font-size: 12px; fill: rgb(68, 68, 68); fill-opacity: 1; white-space: pre;" transform="translate(206.22459182237327,150.05810703473537)scale(0.6961155867421006)rotate(53.79733879222101)">Natural Hazard and Poverty</text></g></g><g class="slice cursor-pointer"><path class="surface" d="M234.04529642999464,198.2995869799967L165.31794464499194,112.19938046999499A330.5,330.5 0,0,0 83.2634820357436,208.7905082815455L179.34232135716243,262.693672187697A220.33333333333331,220.33333333333331 0,0,1 234.04529642999464,198.2995869799967Z" style="pointer-events: none; stroke-width: 1; fill: rgb(239, 239, 241); fill-opacity: 1; stroke: rgb(0, 0, 0); stroke-opacity: 1;"/><g class="slicetext"><text data-notex="1" class="slicetext" text-anchor="middle" x="0" y="0" style="font-family: 'Open Sans'; font-size: 12px; fill: rgb(68, 68, 68); fill-opacity: 1; white-space: pre;" transform="translate(159.57632753869333,194.60546776908075)scale(0.6934622336853389)rotate(40.348004094165844)">Mobility and Transportation</text></g></g><g class="slice cursor-pointer"><path class="surface" d="M179.34232135716243,262.693672187697L83.2634820357436,208.7905082815455A330.5,330.5 0,0,0 48.64049013276866,299.8460058574807L156.26032675517914,323.39733723832046A220.33333333333331,220.33333333333331 0,0,1 179.34232135716243,262.693672187697Z" style="pointer-events: none; stroke-width: 1; fill: rgb(213, 229, 227); fill-opacity: 1; stroke: rgb(0, 0, 0); stroke-opacity: 1;"/><g class="slicetext"><text data-notex="1" class="slicetext" text-anchor="middle" x="0" y="0" style="font-family: 'Open Sans'; font-size: 12px; fill: rgb(68, 68, 68); fill-opacity: 1; white-space: pre;" transform="translate(112.67564616955477,276.3830528843942)scale(0.8840778224998412)rotate(20.81883316274309)">Buildings and Heating</text></g></g><g class="slice cursor-pointer"><path class="surface" d="M156.26032675517914,323.39733723832046L48.64049013276866,299.8460058574807A330.5,330.5 0,0,0 41.28871912213515,356.6884113513376L151.35914608142346,361.2922742342251A220.33333333333331,220.33333333333331 0,0,1 156.26032675517914,323.39733723832046Z" style="pointer-events: none; stroke-width: 1; fill: rgb(224, 234, 233); fill-opacity: 1; stroke: rgb(0, 0, 0); stroke-opacity: 1;"/><g class="slicetext"><text data-notex="1" class="slicetext" text-anchor="middle" x="0" y="0" style="font-family: 'Open Sans'; font-size: 12px; fill: rgb(68, 68, 68); fill-opacity: 1; white-space: pre;" transform="translate(98.04344558066536,337.7385221748414)scale(0.5687399772415942)rotate(7.369498464687808)">Computation and Communication</text></g></g><g class="slice cursor-pointer"><path class="surface" d="M151.35914608142346,361.292274234225L41.28871912213515,356.6884113513375A330.5,330.5 0,0,0 58.27723225943356,475.959697367948L162.68482150628907,440.80646491196535A220.33333333333331,220.33333333333331 0,0,1 151.35914608142346,361.292274234225Z" style="pointer-events: none; stroke-width: 1; fill: rgb(231, 237, 236); fill-opacity: 1; stroke: rgb(0, 0, 0); stroke-opacity: 1;"/><g class="slicetext"><text data-notex="1" class="slicetext" text-anchor="middle" x="0" y="0" style="font-family: 'Open Sans'; font-size: 12px; fill: rgb(68, 68, 68); fill-opacity: 1; white-space: pre;" transform="translate(96.10862049534124,373.66862564098176)scale(0.6972065529435599)">Earth and Climate Modeling</text></g></g><g class="slice cursor-pointer"><path class="surface" d="M162.68482150628907,440.80646491196535L58.27723225943356,475.959697367948A330.5,330.5 0,0,0 108.94668511718896,571.2386530891533L196.46445674479264,504.32576872610224A220.33333333333331,220.33333333333331 0,0,1 162.68482150628907,440.80646491196535Z" style="pointer-events: none; stroke-width: 1; fill: rgb(238, 238, 241); fill-opacity: 1; stroke: rgb(0, 0, 0); stroke-opacity: 1;"/><g class="slicetext"><text data-notex="1" class="slicetext" text-anchor="middle" x="0" y="0" style="font-family: 'Open Sans'; font-size: 12px; fill: rgb(68, 68, 68); fill-opacity: 1; white-space: pre;" transform="translate(129.4986320501118,501.9811053456501)scale(0.5409513803671854)rotate(-28.00409416581374)">Climate Data Processing and Access</text></g></g><g class="slice cursor-pointer"><path class="surface" d="M196.46445674479264,504.32576872610224L108.94668511718896,571.2386530891533A330.5,330.5 0,0,0 119.61730328634917,584.4751319575688L203.57820219089945,513.1500879717125A220.33333333333331,220.33333333333331 0,0,1 196.46445674479264,504.32576872610224Z" style="pointer-events: none; stroke-width: 1; fill: rgb(202, 207, 244); fill-opacity: 1; stroke: rgb(0, 0, 0); stroke-opacity: 1;"/><g class="slicetext"><text data-notex="1" class="slicetext" text-anchor="middle" x="0" y="0" style="font-family: 'Open Sans'; font-size: 12px; fill: rgb(68, 68, 68); fill-opacity: 1; white-space: pre;" transform="translate(158.37515412080413,545.054349540854)scale(0.4699278173636823)rotate(-38.87410440122824)">Meteorological Observation and Forecast</text></g></g><g class="slice cursor-pointer"><path class="surface" d="M203.57820219089945,513.1500879717125L119.61730328634917,584.4751319575688A330.5,330.5 0,0,0 130.954502743386,597.1453479548352L211.13633516225735,521.5968986365567A220.33333333333331,220.33333333333331 0,0,1 203.57820219089945,513.1500879717125Z" style="pointer-events: none; stroke-width: 1; fill: rgb(203, 208, 244); fill-opacity: 1; stroke: rgb(0, 0, 0); stroke-opacity: 1;"/><g class="slicetext"><text data-notex="1" class="slicetext" text-anchor="middle" x="0" y="0" style="font-family: 'Open Sans'; font-size: 12px; fill: rgb(68, 68, 68); fill-opacity: 1; white-space: pre;" transform="translate(157.28041723762877,566.8957215275424)scale(0.7729575612833265)rotate(-41.82190378710334)">Radiative Transfer</text></g></g><g class="slice cursor-pointer"><path class="surface" d="M211.13633516225735,521.5968986365567L130.954502743386,597.1453479548352A330.5,330.5 0,0,0 141.3978129524535,607.740876570493L218.09854196830236,528.6605843803287A220.33333333333331,220.33333333333331 0,0,1 211.13633516225735,521.5968986365567Z" style="pointer-events: none; stroke-width: 1; fill: rgb(211, 228, 226); fill-opacity: 1; stroke: rgb(0, 0, 0); stroke-opacity: 1;"/><g class="slicetext"><text data-notex="1" class="slicetext" text-anchor="middle" x="0" y="0" style="font-family: 'Open Sans'; font-size: 12px; fill: rgb(68, 68, 68); fill-opacity: 1; white-space: pre;" transform="translate(168.86370088377566,574.4366856314389)scale(0.659984383468191)rotate(-44.58546571136128)">Integrated Assessment</text></g></g><g class="slice cursor-pointer"><path class="surface" d="M218.0985419683024,528.6605843803288L141.39781295245362,607.7408765704931A330.5,330.5 0,0,0 279.7323604784601,688.0042524701751L310.32157365230677,582.1695016467834A220.33333333333331,220.33333333333331 0,0,1 218.0985419683024,528.6605843803288Z" style="pointer-events: none; stroke-width: 1; fill: rgb(215, 230, 228); fill-opacity: 1; stroke: rgb(0, 0, 0); stroke-opacity: 1;"/><g class="slicetext"><text data-notex="1" class="slicetext" text-anchor="middle" x="0" y="0" style="font-family: 'Open Sans'; font-size: 12px; fill: rgb(68, 68, 68); fill-opacity: 1; white-space: pre;" transform="translate(235.48706438245918,609.9832047355518)scale(0.5591790077097577)rotate(-59.877175025588485)">Energy Modeling and Optimization</text></g></g><g class="slice cursor-pointer"><path class="surface" d="M310.32157365230677,582.1695016467834L279.7323604784601,688.0042524701751A330.5,330.5 0,0,0 329.6345732863716,698.3376672166971L343.58971552424777,589.0584448111314A220.33333333333331,220.33333333333331 0,0,1 310.32157365230677,582.1695016467834Z" style="pointer-events: none; stroke-width: 1; fill: rgb(204, 225, 223); fill-opacity: 1; stroke: rgb(0, 0, 0); stroke-opacity: 1;"/><g class="slicetext"><text data-notex="1" class="slicetext" text-anchor="middle" x="0" y="0" style="font-family: 'Open Sans'; font-size: 12px; fill: rgb(68, 68, 68); fill-opacity: 1; white-space: pre;" transform="translate(318.57561801272715,640.7774856560515)scale(0.6556255288747954)rotate(-78.30092118730806)">Energy Distribution and Grids</text></g></g><g class="slice cursor-pointer"><path class="surface" d="M343.58971552424777,589.0584448111314L329.6345732863716,698.3376672166971A330.5,330.5 0,0,0 369.9058971144618,700.9961555540251L370.43726474297455,590.83077036935A220.33333333333331,220.33333333333331 0,0,1 343.58971552424777,589.0584448111314Z" style="pointer-events: none; stroke-width: 1; fill: rgb(225, 227, 242); fill-opacity: 1; stroke: rgb(0, 0, 0); stroke-opacity: 1;"/><g class="slicetext"><text data-notex="1" class="slicetext" text-anchor="middle" x="0" y="0" style="font-family: 'Open Sans'; font-size: 12px; fill: rgb(68, 68, 68); fill-opacity: 1; white-space: pre;" transform="translate(356.4810828775267,645.500276509479)scale(0.6883246002539792)rotate(-86.22313203684757)">Datasets on Energy Systems</text></g></g><g class="slice cursor-pointer"><path class="surface" d="M370.43726474297455,590.83077036935L369.9058971144618,700.9961555540251A330.5,330.5 0,0,0 386.90413829398267,700.6408222613796L381.7694255293218,590.5938815075864A220.33333333333331,220.33333333333331 0,0,1 370.43726474297455,590.83077036935Z" style="pointer-events: none; stroke-width: 1; fill: rgb(188, 218, 215); fill-opacity: 1; stroke: rgb(0, 0, 0); stroke-opacity: 1;"/><g class="slicetext"><text data-notex="1" class="slicetext" text-anchor="middle" x="0" y="0" style="font-family: 'Open Sans'; font-size: 12px; fill: rgb(68, 68, 68); fill-opacity: 1; white-space: pre;" transform="translate(374.4044915646269,645.895156873925)scale(0.6274894306294343)rotate(88.80245649948824)">Energy Monitoring and Control</text></g></g><g class="slice cursor-pointer"><path class="surface" d="M381.7694255293218,590.5938815075864L386.90413829398267,700.6408222613796A330.5,330.5 0,0,0 470.3904463633836,685.8584145350346L437.42696424225574,580.7389430233563A220.33333333333331,220.33333333333331 0,0,1 381.7694255293218,590.5938815075864Z" style="pointer-events: none; stroke-width: 1; fill: rgb(228, 230, 242); fill-opacity: 1; stroke: rgb(0, 0, 0); stroke-opacity: 1;"/><g class="slicetext"><text data-notex="1" class="slicetext" text-anchor="middle" x="0" y="0" style="font-family: 'Open Sans'; font-size: 12px; fill: rgb(68, 68, 68); fill-opacity: 1; white-space: pre;" transform="translate(416.6953739999599,642.0751282520949)scale(0.6263254340952829)rotate(79.95905834186283)">Photovoltaics and Solar Energy</text></g></g><g class="slice cursor-pointer"><path class="surface" d="M437.42696424225574,580.7389430233563L470.3904463633836,685.8584145350346A330.5,330.5 0,0,0 523.3873684925298,664.0310499630566L472.7582456616866,566.1873666420378A220.33333333333331,220.33333333333331 0,0,1 437.42696424225574,580.7389430233563Z" style="pointer-events: none; stroke-width: 1; fill: rgb(219, 232, 230); fill-opacity: 1; stroke: rgb(0, 0, 0); stroke-opacity: 1;"/><g class="slicetext"><text data-notex="1" class="slicetext" text-anchor="middle" x="0" y="0" style="font-family: 'Open Sans'; font-size: 12px; fill: rgb(68, 68, 68); fill-opacity: 1; white-space: pre;" transform="translate(472.07681630757054,626.6347987831308)rotate(67.61514841351072)">Wind Energy</text></g></g><g class="slice cursor-pointer"><path class="surface" d="M472.7582456616866,566.1873666420378L523.3873684925298,664.0310499630566A330.5,330.5 0,0,0 540.1130868111901,654.7531916373184L483.9087245407934,560.0021277582123A220.33333333333331,220.33333333333331 0,0,1 472.7582456616866,566.1873666420378Z" style="pointer-events: none; stroke-width: 1; fill: rgb(233, 234, 242); fill-opacity: 1; stroke: rgb(0, 0, 0); stroke-opacity: 1;"/><g class="slicetext"><text data-notex="1" class="slicetext" text-anchor="middle" x="0" y="0" style="font-family: 'Open Sans'; font-size: 12px; fill: rgb(68, 68, 68); fill-opacity: 1; white-space: pre;" transform="translate(511.1182317469838,630.6713788052906)scale(0.9044274518101764)rotate(60.982599795291776)">Hydro Energy</text></g></g><g class="slice cursor-pointer"><path class="surface" d="M483.9087245407934,560.0021277582123L540.1130868111901,654.7531916373184A330.5,330.5 0,0,0 552.734364940508,646.8771968969414L492.3229099603387,554.7514645979609A220.33333333333331,220.33333333333331 0,0,1 483.9087245407934,560.0021277582123Z" style="pointer-events: none; stroke-width: 1; fill: rgb(164, 174, 247); fill-opacity: 1; stroke: rgb(0, 0, 0); stroke-opacity: 1;"/><g class="slicetext"><text data-notex="1" class="slicetext" text-anchor="middle" x="0" y="0" style="font-family: 'Open Sans'; font-size: 12px; fill: rgb(68, 68, 68); fill-opacity: 1; white-space: pre;" transform="translate(523.6317332828811,620.193589901371)scale(0.6875713381888421)rotate(58.03480040941656)">Geothermal Energy</text></g></g><g class="slice cursor-pointer"><path class="surface" d="M492.3229099603387,554.7514645979609L552.734364940508,646.8771968969414A330.5,330.5 0,0,0 558.0325333077448,643.3293679532962L495.85502220516315,552.3862453021975A220.33333333333331,220.33333333333331 0,0,1 492.3229099603387,554.7514645979609Z" style="pointer-events: none; stroke-width: 1; fill: rgb(229, 230, 242); fill-opacity: 1; stroke: rgb(0, 0, 0); stroke-opacity: 1;"/><g class="slicetext"><text data-notex="1" class="slicetext" text-anchor="middle" x="0" y="0" style="font-family: 'Open Sans'; font-size: 12px; fill: rgb(68, 68, 68); fill-opacity: 1; white-space: pre;" transform="translate(548.2396229451662,637.3642978112728)scale(0.358627397184687)rotate(56.19242579324464)">Bioenergy</text></g></g><g class="slice cursor-pointer"><path class="surface" d="M495.855022205163,552.3862453021976L558.0325333077444,643.3293679532965A330.5,330.5 0,0,0 608.3706175235841,600.9833194701863L529.4137450157227,524.1555463134575A220.33333333333331,220.33333333333331 0,0,1 495.855022205163,552.3862453021976Z" style="pointer-events: none; stroke-width: 1; fill: rgb(240, 241, 241); fill-opacity: 1; stroke: rgb(0, 0, 0); stroke-opacity: 1;"/><g class="slicetext"><text data-notex="1" class="slicetext" text-anchor="middle" x="0" y="0" style="font-family: 'Open Sans'; font-size: 12px; fill: rgb(68, 68, 68); fill-opacity: 1; white-space: pre;" transform="translate(546.434866150046,583.2166214629834)scale(0.6750885972759404)rotate(49.92835209826001)">Data Catalogs and Interfaces</text></g></g><g class="slice cursor-pointer"><path class="surface" d="M529.4137450157227,524.1555463134575L608.3706175235841,600.9833194701863A330.5,330.5 0,0,0 626.7902331186683,580.3979439494727L541.6934887457788,510.4319626329818A220.33333333333331,220.33333333333331 0,0,1 529.4137450157227,524.1555463134575Z" style="pointer-events: none; stroke-width: 1; fill: rgb(165, 209, 203); fill-opacity: 1; stroke: rgb(0, 0, 0); stroke-opacity: 1;"/><g class="slicetext"><text data-notex="1" class="slicetext" text-anchor="middle" x="0" y="0" style="font-family: 'Open Sans'; font-size: 12px; fill: rgb(68, 68, 68); fill-opacity: 1; white-space: pre;" transform="translate(573.9619233741403,557.1992206172056)scale(0.9080970827673362)rotate(41.821903787103395)">Knowledge Platforms</text></g></g><g class="slice cursor-pointer"><path class="surface" d="M541.6934887457788,510.4319626329818L626.7902331186683,580.3979439494727A330.5,330.5 0,0,0 639.7519318838777,563.5573775864768L550.3346212559184,499.2049183909845A220.33333333333331,220.33333333333331 0,0,1 541.6934887457788,510.4319626329818Z" style="pointer-events: none; stroke-width: 1; fill: rgb(193, 221, 217); fill-opacity: 1; stroke: rgb(0, 0, 0); stroke-opacity: 1;"/><g class="slicetext"><text data-notex="1" class="slicetext" text-anchor="middle" x="0" y="0" style="font-family: 'Open Sans'; font-size: 12px; fill: rgb(68, 68, 68); fill-opacity: 1; white-space: pre;" transform="translate(587.3402148729887,541.358335737058)scale(0.8251659271136915)rotate(37.5844421699079)">Sustainable Investment</text></g></g><g class="slice cursor-pointer"><path class="surface" d="M550.3346212559184,499.2049183909845L639.7519318838777,563.5573775864768A330.5,330.5 0,0,0 646.9998330805647,553.065308787242L555.1665553870431,492.2102058581613A220.33333333333331,220.33333333333331 0,0,1 550.3346212559184,499.2049183909845Z" style="pointer-events: none; stroke-width: 1; fill: rgb(235, 236, 241); fill-opacity: 1; stroke: rgb(0, 0, 0); stroke-opacity: 1;"/><g class="slicetext"><text data-notex="1" class="slicetext" text-anchor="middle" x="0" y="0" style="font-family: 'Open Sans'; font-size: 12px; fill: rgb(68, 68, 68); fill-opacity: 1; white-space: pre;" transform="translate(601.8708152988834,532.6186459758217)scale(0.5392995502690107)rotate(34.6366427840328)">Sustainable Development Goals</text></g></g><g class="slice cursor-pointer"><path class="surface" d="M555.1665553870431,492.2102058581613L646.9998330805647,553.065308787242A330.5,330.5 0,0,0 669.991000397609,512.3921163477189L570.4940002650726,465.09474423181257A220.33333333333331,220.33333333333331 0,0,1 555.1665553870431,492.2102058581613Z" style="pointer-events: none; stroke-width: 1; fill: rgb(221, 224, 243); fill-opacity: 1; stroke: rgb(0, 0, 0); stroke-opacity: 1;"/><g class="slicetext"><text data-notex="1" class="slicetext" text-anchor="middle" x="0" y="0" style="font-family: 'Open Sans'; font-size: 12px; fill: rgb(68, 68, 68); fill-opacity: 1; white-space: pre;" transform="translate(610.0478782821741,508.1469377188482)scale(0.5370988307622923)rotate(29.477993858751233)">Emission Observation and Modeling</text></g></g><g class="slice cursor-pointer"><path class="surface" d="M570.4940002650726,465.09474423181257L669.991000397609,512.3921163477189A330.5,330.5 0,0,0 680.7974070598018,486.97044254266075L577.6982713732012,448.14696169510717A220.33333333333331,220.33333333333331 0,0,1 570.4940002650726,465.09474423181257Z" style="pointer-events: none; stroke-width: 1; fill: rgb(221, 223, 243); fill-opacity: 1; stroke: rgb(0, 0, 0); stroke-opacity: 1;"/><g class="slicetext"><text data-notex="1" class="slicetext" text-anchor="middle" x="0" y="0" style="font-family: 'Open Sans'; font-size: 12px; fill: rgb(68, 68, 68); fill-opacity: 1; white-space: pre;" transform="translate(623.8930532112303,480.72299043413136)scale(0.5941593823200547)rotate(23.029682702149387)">Carbon Intensity and Accounting</text></g></g><g class="slice cursor-pointer"><path class="surface" d="M577.6982713732012,448.14696169510717L680.7974070598018,486.97044254266075A330.5,330.5 0,0,0 683.6908768215987,478.97629431982546L579.6272512143992,442.8175295465503A220.33333333333331,220.33333333333331 0,0,1 577.6982713732012,448.14696169510717Z" style="pointer-events: none; stroke-width: 1; fill: rgb(208, 227, 225); fill-opacity: 1; stroke: rgb(0, 0, 0); stroke-opacity: 1;"/><g class="slicetext"><text data-notex="1" class="slicetext" text-anchor="middle" x="0" y="0" style="font-family: 'Open Sans'; font-size: 12px; fill: rgb(68, 68, 68); fill-opacity: 1; white-space: pre;" transform="translate(649.6519051652238,473.1348680427596)scale(0.4051512739402326)rotate(19.89764585465707)">Carbon Capture and Removal</text></g></g><g class="slice cursor-pointer"><path class="surface" d="M579.6272512143992,442.8175295465503L683.6908768215987,478.97629431982546A330.5,330.5 0,0,0 692.1798806637084,450.46664390550393L585.286587109139,423.8110959370026A220.33333333333331,220.33333333333331 0,0,1 579.6272512143992,442.8175295465503Z" style="pointer-events: none; stroke-width: 1; fill: rgb(225, 227, 242); fill-opacity: 1; stroke: rgb(0, 0, 0); stroke-opacity: 1;"/><g class="slicetext"><text data-notex="1" class="slicetext" text-anchor="middle" x="0" y="0" style="font-family: 'Open Sans'; font-size: 12px; fill: rgb(68, 68, 68); fill-opacity: 1; white-space: pre;" transform="translate(634.1465756982939,452.89575816942084)scale(0.8836869832673029)rotate(16.581371545547597)">Life Cycle Assessment</text></g></g><g class="slice cursor-pointer"><path class="surface" d="M585.286587109139,423.8110959370026L692.1798806637084,450.46664390550393A330.5,330.5 0,0,0 697.7375787151996,423.4083380389513L588.9917191434664,405.7722253593008A220.33333333333331,220.33333333333331 0,0,1 585.286587109139,423.8110959370026Z" style="pointer-events: none; stroke-width: 1; fill: rgb(198, 203, 244); fill-opacity: 1; stroke: rgb(0, 0, 0); stroke-opacity: 1;"/><g class="slicetext"><text data-notex="1" class="slicetext" text-anchor="middle" x="0" y="0" style="font-family: 'Open Sans'; font-size: 12px; fill: rgb(68, 68, 68); fill-opacity: 1; white-space: pre;" transform="translate(640.6417002428426,428.921712994711)scale(0.6769482631937503)rotate(11.606960081883301)">Circular Economy and Waste</text></g></g><g class="slice cursor-pointer"><path class="surface" d="M588.9917191434664,405.7722253593008L697.7375787151996,423.4083380389513A330.5,330.5 0,0,0 701.5626831090076,387.49632957090665L591.5417887393384,381.83088638060445A220.33333333333331,220.33333333333331 0,0,1 588.9917191434664,405.7722253593008Z" style="pointer-events: none; stroke-width: 1; fill: rgb(230, 232, 242); fill-opacity: 1; stroke: rgb(0, 0, 0); stroke-opacity: 1;"/><g class="slicetext"><text data-notex="1" class="slicetext" text-anchor="middle" x="0" y="0" style="font-family: 'Open Sans'; font-size: 12px; fill: rgb(68, 68, 68); fill-opacity: 1; white-space: pre;" transform="translate(663.950794331002,406.22033378987226)rotate(6.079836233367416)">Battery</text></g></g><g class="slice cursor-pointer"><path class="surface" d="M591.5417887393384,381.83088638060445L701.5626831090076,387.49632957090665A330.5,330.5 0,0,0 702,370.50000000000006L591.8333333333333,370.50000000000006A220.33333333333331,220.33333333333331 0,0,1 591.5417887393384,381.83088638060445Z" style="pointer-events: none; stroke-width: 1; fill: rgb(226, 235, 234); fill-opacity: 1; stroke: rgb(0, 0, 0); stroke-opacity: 1;"/><g class="slicetext"><text data-notex="1" class="slicetext" text-anchor="middle" x="0" y="0" style="font-family: 'Open Sans'; font-size: 12px; fill: rgb(68, 68, 68); fill-opacity: 1; white-space: pre;" transform="translate(677.3447773682822,382.3234153120088)scale(0.8697292103027705)rotate(1.4738996929375503)">Hydrogen</text></g></g></g></g><g class="glimages"/><defs id="topdefs-873672"><g class="clips"/></defs><g class="layer-above"><g class="imagelayer"/><g class="shapelayer"/></g><g class="infolayer"><g class="cbcoloraxis colorbar" transform="translate(0,-26.363636016845703)"><rect class="cbbg" x="0" y="760" height="66.3636360168457" width="743" style="fill: rgb(0, 0, 0); fill-opacity: 0; stroke: rgb(68, 68, 68); stroke-opacity: 1; stroke-width: 0;"/><g class="cbfills" transform="translate(45,0)"><rect class="cbfill gradient_filled" y="770" x="0" height="30" width="688" style="fill: url('#g873672-cbcoloraxis');"/></g><g class="cblines" transform="translate(45,0)"/><g class="cbaxis crisp" transform=""><g class="xcbcoloraxistick"><text text-anchor="middle" x="0" y="814.9" transform="translate(70.12238601684571,0)" style="font-family: 'Open Sans'; font-size: 12px; fill: rgb(4, 4, 4); fill-opacity: 1; white-space: pre; opacity: 1;">−0.2</text></g><g class="xcbcoloraxistick"><text text-anchor="middle" x="0" y="814.9" style="font-family: 'Open Sans'; font-size: 12px; fill: rgb(4, 4, 4); fill-opacity: 1; white-space: pre; opacity: 1;" transform="translate(189.3723860168457,0)">0</text></g><g class="xcbcoloraxistick"><text text-anchor="middle" x="0" y="814.9" style="font-family: 'Open Sans'; font-size: 12px; fill: rgb(4, 4, 4); fill-opacity: 1; white-space: pre; opacity: 1;" transform="translate(308.6223860168457,0)">0.2</text></g><g class="xcbcoloraxistick"><text text-anchor="middle" x="0" y="814.9" style="font-family: 'Open Sans'; font-size: 12px; fill: rgb(4, 4, 4); fill-opacity: 1; white-space: pre; opacity: 1;" transform="translate(427.8623860168457,0)">0.4</text></g><g class="xcbcoloraxistick"><text text-anchor="middle" x="0" y="814.9" style="font-family: 'Open Sans'; font-size: 12px; fill: rgb(4, 4, 4); fill-opacity: 1; white-space: pre; opacity: 1;" transform="translate(547.1123860168457,0)">0.6</text></g><g class="xcbcoloraxistick"><text text-anchor="middle" x="0" y="814.9" style="font-family: 'Open Sans'; font-size: 12px; fill: rgb(4, 4, 4); fill-opacity: 1; white-space: pre; opacity: 1;" transform="translate(666.3623860168457,0)">0.8</text></g></g><g class="cbtitleunshift" transform="translate(0,-40)"><g class="cbtitle" transform=""><text class="xcbcoloraxistitle" x="10" y="823.65" text-anchor="middle" style="font-family: 'Open Sans'; font-size: 14px; fill: rgb(4, 4, 4); opacity: 1; font-weight: normal; white-space: pre; pointer-events: all;" transform="translate(19.02068519592285,0)"><a xlink:show="new" target="_blank" xlink:href="https://report.opensustain.tech/chapters/development-distribution-score.html" style="cursor:pointer">DDS</a></text></g></g><rect class="cboutline" x="48.082740783691406" y="770" height="30" width="684.9172592163086" style="stroke: rgb(68, 68, 68); stroke-opacity: 1; fill: none; stroke-width: 0;"/></g><g class="g-gtitle"/></g></svg>