<svg class="main-svg" xmlns="http://www.w3.org/2000/svg" xmlns:xlink="http://www.w3.org/1999/xlink" width="743.395" height="525" style="" viewBox="0 0 743.395 525"><rect x="0" y="0" width="743.395" height="525" style="fill: rgb(255, 255, 255); fill-opacity: 1;"/><defs id="defs-531c70"><g class="clips"/><g class="gradients"/><g class="patterns"/></defs><g class="bglayer"/><g class="layer-below"><g class="imagelayer"/><g class="shapelayer"/></g><g class="cartesianlayer"/><g class="polarlayer"/><g class="smithlayer"/><g class="ternarylayer"/><g class="geolayer"/><g class="funnelarealayer"/><g class="pielayer"><g class="trace" stroke-linejoin="round" style="opacity: 1;"><g class="slice"><path class="surface" d="M402.82656397485675,304.6295192178739a52.5,52.5 0 0 0 -31.326563974856732,-94.62951921787392l0,-210a262.5,262.5 0 0 1 156.63281987428365,473.1475960893696Z" style="pointer-events: none; stroke-width: 1; fill: rgb(51, 97, 228); fill-opacity: 1; stroke: rgb(4, 4, 4); stroke-opacity: 1;"/><g class="slicetext"><text data-notex="1" class="slicetext" transform="translate(521.0192687809897,208.9656865042187)" text-anchor="middle" x="0" y="0" style="font-family: 'Open Sans'; font-size: 16px; fill: rgb(255, 255, 255); fill-opacity: 1; white-space: pre;"><tspan class="line" dy="0em" x="0" y="0">Python</tspan><tspan class="line" dy="1.3em" x="0" y="0">39.8%</tspan></text></g></g><g class="slice"><path class="surface" d="M371.5,210a52.5,52.5 0 0 0 -45.55678453965925,26.40729254356566l-182.227138158637,-104.37082982573736a262.5,262.5 0 0 1 227.78392269829624,-132.0364627178283Z" style="pointer-events: none; stroke-width: 1; fill: rgb(43, 111, 201); fill-opacity: 1; stroke: rgb(4, 4, 4); stroke-opacity: 1;"/><g class="slicetext"><text data-notex="1" class="slicetext" transform="translate(283.8251332293025,107.21123684959844)" text-anchor="middle" x="0" y="0" style="font-family: 'Open Sans'; font-size: 16px; fill: rgb(255, 255, 255); fill-opacity: 1; white-space: pre;"><tspan class="line" dy="0em" x="0" y="0">R</tspan><tspan class="line" dy="1.3em" x="0" y="0">16.7%</tspan></text></g></g><g class="slice"><path class="surface" d="M325.94321546034075,236.40729254356566a52.5,52.5 0 0 0 -6.824034707356294,29.628209544043244l-209.52327698806218,14.142008350435626a262.5,262.5 0 0 1 34.120173536781465,-148.14104772021622Z" style="pointer-events: none; stroke-width: 1; fill: rgb(34, 126, 174); fill-opacity: 1; stroke: rgb(4, 4, 4); stroke-opacity: 1;"/><g class="slicetext"><text data-notex="1" class="slicetext" transform="translate(201.8350941053558,219.2801452575806)rotate(12.970297029703033)" text-anchor="middle" x="0" y="0" style="font-family: 'Open Sans'; font-size: 16px; fill: rgb(255, 255, 255); fill-opacity: 1; white-space: pre;"><tspan class="line" dy="0em" x="0" y="0">Jupyter Notebook</tspan><tspan class="line" dy="1.3em" x="0" y="0">9.35%</tspan></text></g></g><g class="slice"><path class="surface" d="M319.11918075298445,266.0355020876089a52.5,52.5 0 0 0 3.8684688114975874,16.534422058274185l-194.04940174207184,80.27969658353237a262.5,262.5 0 0 1 -19.342344057487935,-82.67211029137093Z" style="pointer-events: none; stroke-width: 1; fill: rgb(26, 141, 147); fill-opacity: 1; stroke: rgb(4, 4, 4); stroke-opacity: 1;"/><g class="slicetext"><text data-notex="1" class="slicetext" transform="translate(151.4835717124459,309.9393474116405)" text-anchor="middle" x="0" y="0" style="font-family: 'Open Sans'; font-size: 16px; fill: rgb(255, 255, 255); fill-opacity: 1; white-space: pre;"><tspan class="line" dy="0em" x="0" y="0">Fortran</tspan><tspan class="line" dy="1.3em" x="0" y="0">5.17%</tspan></text></g></g><g class="slice"><path class="surface" d="M322.987649564482,282.5699241458831a52.5,52.5 0 0 0 8.00494529110071,13.327682481928427l-162.029620577669,133.59042651124608a262.5,262.5 0 0 1 -40.024726455503554,-66.63841240964213Z" style="pointer-events: none; stroke-width: 1; fill: rgb(22, 148, 133); fill-opacity: 1; stroke: rgb(4, 4, 4); stroke-opacity: 1;"/><g class="slicetext"><text data-notex="1" class="slicetext" transform="translate(175.49172816698626,376.1906615762183)" text-anchor="middle" x="0" y="0" style="font-family: 'Open Sans'; font-size: 16px; fill: rgb(255, 255, 255); fill-opacity: 1; white-space: pre;"><tspan class="line" dy="0em" x="0" y="0">C++</tspan><tspan class="line" dy="1.3em" x="0" y="0">4.73%</tspan></text></g></g><g class="slice"><path class="surface" d="M330.99259485558275,295.8976066278115a52.5,52.5 0 0 0 8.601438232689299,8.294830041538011l-127.62386764691178,166.76974667739813a262.5,262.5 0 0 1 -43.00719116344649,-41.47415020769006Z" style="pointer-events: none; stroke-width: 1; fill: rgb(141, 167, 240); fill-opacity: 1; stroke: rgb(4, 4, 4); stroke-opacity: 1;"/><g class="slicetext"><text data-notex="1" class="slicetext" transform="translate(213.57605213179113,420.5513105452564)scale(0.9819536586900132)rotate(-46.03960396039599)" text-anchor="middle" x="0" y="0" style="font-family: 'Open Sans'; font-size: 16px; fill: rgb(68, 68, 68); fill-opacity: 1; white-space: pre;"><tspan class="line" dy="0em" x="0" y="0">JavaScript</tspan><tspan class="line" dy="1.3em" x="0" y="0">3.63%</tspan></text></g></g><g class="slice"><path class="surface" d="M339.59403308827206,304.19243666934955a52.5,52.5 0 0 0 8.940418605136932,5.518087485521221l-91.86219322636406,188.84209661948302a262.5,262.5 0 0 1 -44.70209302568466,-27.590437427606105Z" style="pointer-events: none; stroke-width: 1; fill: rgb(120, 166, 226); fill-opacity: 1; stroke: rgb(4, 4, 4); stroke-opacity: 1;"/><g class="slicetext"><text data-notex="1" class="slicetext" transform="translate(242.6864059481443,463.5529007276013)scale(0.995540195143467)rotate(-58.31683168316829)" text-anchor="middle" x="0" y="0" style="font-family: 'Open Sans'; font-size: 16px; fill: rgb(68, 68, 68); fill-opacity: 1; white-space: pre;"><tspan class="line" dy="0em" x="0" y="0">Julia</tspan><tspan class="line" dy="1.3em" x="0" y="0">3.19%</tspan></text></g></g><g class="slice"><path class="surface" d="M348.534451693409,309.71052415487077a52.5,52.5 0 0 0 7.763589136199986,3.040350836334767l-60.80783668156411,201.00349996482208a262.5,262.5 0 0 1 -38.81794568099993,-15.201754181673834Z" style="pointer-events: none; stroke-width: 1; fill: rgb(88, 176, 222); fill-opacity: 1; stroke: rgb(4, 4, 4); stroke-opacity: 1;"/><g class="slicetext"><text data-notex="1" class="slicetext" transform="translate(279.78035948021306,487.6392301617888)scale(0.819217897134919)rotate(-68.61386138613852)" text-anchor="middle" x="0" y="0" style="font-family: 'Open Sans'; font-size: 16px; fill: rgb(68, 68, 68); fill-opacity: 1; white-space: pre;"><tspan class="line" dy="0em" x="0" y="0">C</tspan><tspan class="line" dy="1.3em" x="0" y="0">2.53%</tspan></text></g></g><g class="slice"><path class="surface" d="M356.29804082960896,312.75087499120554a52.5,52.5 0 0 0 7.428506439258261,1.6704446437656715l-31.093810924531063,207.68527853988476a262.5,262.5 0 0 1 -37.142532196291306,-8.352223218828357Z" style="pointer-events: none; stroke-width: 1; fill: rgb(55, 212, 220); fill-opacity: 1; stroke: rgb(4, 4, 4); stroke-opacity: 1;"/><g class="slicetext"><text data-notex="1" class="slicetext" transform="translate(317.3368088739386,490.6720001694189)scale(0.6898733165315848)rotate(-77.32673267326732)" text-anchor="middle" x="0" y="0" style="font-family: 'Open Sans'; font-size: 16px; fill: rgb(68, 68, 68); fill-opacity: 1; white-space: pre;"><tspan class="line" dy="0em" x="0" y="0">TypeScript</tspan><tspan class="line" dy="1.3em" x="0" y="0">2.31%</tspan></text></g></g><g class="slice"><path class="surface" d="M363.72654726886725,314.4213196349712a52.5,52.5 0 0 0 7.592007972090826,0.5783668193250492l-0.7257790361677547,209.99874581718495a262.5,262.5 0 0 1 -37.96003986045413,-2.891834096625246Z" style="pointer-events: none; stroke-width: 1; fill: rgb(48, 224, 203); fill-opacity: 1; stroke: rgb(4, 4, 4); stroke-opacity: 1;"/><g class="slicetext"><text data-notex="1" class="slicetext" transform="translate(349.87208068832433,506.14979469785226)scale(0.757467057860796)rotate(-85.6435643564356)" text-anchor="middle" x="0" y="0" style="font-family: 'Open Sans'; font-size: 16px; fill: rgb(68, 68, 68); fill-opacity: 1; white-space: pre;"><tspan class="line" dy="0em" x="0" y="0">Java</tspan><tspan class="line" dy="1.3em" x="0" y="0">2.31%</tspan></text></g></g><g class="slice"><path class="surface" d="M371.31855524095806,314.99968645429624a52.5,52.5 0 0 0 6.876632528502697,-0.42834634544497024l26.780751077843032,208.2853604354051a262.5,262.5 0 0 1 -34.38316264251348,2.141731727224851Z" style="pointer-events: none; stroke-width: 1; fill: rgb(21, 56, 156); fill-opacity: 1; stroke: rgb(4, 4, 4); stroke-opacity: 1;"/><g class="slicetext"><text data-notex="1" class="slicetext" transform="translate(389.5980191884406,507.97514387042185)scale(0.694130398933967)rotate(86.4356435643565)" text-anchor="middle" x="0" y="0" style="font-family: 'Open Sans'; font-size: 16px; fill: rgb(255, 255, 255); fill-opacity: 1; white-space: pre;"><tspan class="line" dy="0em" x="0" y="0">HTML</tspan><tspan class="line" dy="1.3em" x="0" y="0">2.09%</tspan></text></g></g><g class="slice"><path class="surface" d="M378.19518776946074,314.57134010885125a52.5,52.5 0 0 0 6.410233698399448,-1.2333825559582807l52.42168587144082,203.35183021157195a262.5,262.5 0 0 1 -32.05116849199724,6.166912779791403Z" style="pointer-events: none; stroke-width: 1; fill: rgb(25, 65, 117); fill-opacity: 1; stroke: rgb(4, 4, 4); stroke-opacity: 1;"/><g class="slicetext"><text data-notex="1" class="slicetext" transform="translate(420.7746319696276,504.4542984814062)scale(0.6618479033779263)rotate(79.10891089108918)" text-anchor="middle" x="0" y="0" style="font-family: 'Open Sans'; font-size: 16px; fill: rgb(255, 255, 255); fill-opacity: 1; white-space: pre;"><tspan class="line" dy="0em" x="0" y="0">Ruby</tspan><tspan class="line" dy="1.3em" x="0" y="0">1.98%</tspan></text></g></g><g class="slice"><path class="surface" d="M384.6054214678602,313.337957552893a52.5,52.5 0 0 0 4.850636056737333,-1.5040949616327737l71.82423009839015,197.33545036504086a262.5,262.5 0 0 1 -24.25318028368666,7.520474808163868Z" style="pointer-events: none; stroke-width: 1; fill: rgb(17, 64, 89); fill-opacity: 1; stroke: rgb(4, 4, 4); stroke-opacity: 1;"/><g class="slicetext"><text data-notex="1" class="slicetext" transform="translate(446.33223739443787,496.8763931608366)scale(0.5102323978696253)rotate(72.77227722772284)" text-anchor="middle" x="0" y="0" style="font-family: 'Open Sans'; font-size: 16px; fill: rgb(255, 255, 255); fill-opacity: 1; white-space: pre;"><tspan class="line" dy="0em" x="0" y="0">MATLAB</tspan><tspan class="line" dy="1.3em" x="0" y="0">1.54%</tspan></text></g></g><g class="slice"><path class="surface" d="M389.45605752459755,311.8338625912602a52.5,52.5 0 0 0 4.354660385749077,-1.8103750685105924l89.24287164138646,190.0939500909985a262.5,262.5 0 0 1 -21.773301928745383,9.051875342552961Z" style="pointer-events: none; stroke-width: 1; fill: rgb(11, 58, 60); fill-opacity: 1; stroke: rgb(4, 4, 4); stroke-opacity: 1;"/><g class="slicetext"><text data-notex="1" class="slicetext" transform="translate(467.6799279442042,488.87283807807273)scale(0.47336493252615924)rotate(67.42574257425747)" text-anchor="middle" x="0" y="0" style="font-family: 'Open Sans'; font-size: 16px; fill: rgb(255, 255, 255); fill-opacity: 1; white-space: pre;"><tspan class="line" dy="0em" x="0" y="0">Modelica</tspan><tspan class="line" dy="1.3em" x="0" y="0">1.43%</tspan></text></g></g><g class="slice"><path class="surface" d="M393.8107179103466,310.02348752274963a52.5,52.5 0 0 0 2.5924914475861303,-1.305740242349083l99.61283743173098,184.87098912160218a262.5,262.5 0 0 1 -12.96245723793065,6.528701211745414Z" style="pointer-events: none; stroke-width: 1; fill: rgb(9, 59, 53); fill-opacity: 1; stroke: rgb(4, 4, 4); stroke-opacity: 1;"/><g class="slicetext"><text data-notex="1" class="slicetext" transform="translate(487.4252930724105,489.84279170043243)scale(0.3144698442045247)rotate(63.26732673267338)" text-anchor="middle" x="0" y="0" style="font-family: 'Open Sans'; font-size: 16px; fill: rgb(255, 255, 255); fill-opacity: 1; white-space: pre;"><tspan class="line" dy="0em" x="0" y="0">C#</tspan><tspan class="line" dy="1.3em" x="0" y="0">0.88%</tspan></text></g></g><g class="slice"><path class="surface" d="M396.4032093579327,308.71774728040054a52.5,52.5 0 0 0 2.5163613134688347,-1.447029794570426l109.67828268560632,179.08286994332047a262.5,262.5 0 0 1 -12.581806567344174,7.23514897285213Z" style="pointer-events: none; stroke-width: 1; fill: rgb(51, 97, 228); fill-opacity: 1; stroke: rgb(4, 4, 4); stroke-opacity: 1;"/><g class="slicetext"><text data-notex="1" class="slicetext" transform="translate(499.81319473049246,483.0881741393341)scale(0.3144698442045247)rotate(60.09900990099021)" text-anchor="middle" x="0" y="0" style="font-family: 'Open Sans'; font-size: 16px; fill: rgb(255, 255, 255); fill-opacity: 1; white-space: pre;"><tspan class="line" dy="0em" x="0" y="0">Vue</tspan><tspan class="line" dy="1.3em" x="0" y="0">0.88%</tspan></text></g></g><g class="slice"><path class="surface" d="M398.9195706714016,307.2707174858301a52.5,52.5 0 0 0 2.133312059785703,-1.3785854538972673l118.21153092474913,173.56852812773138a262.5,262.5 0 0 1 -10.666560298928516,6.892927269486336Z" style="pointer-events: none; stroke-width: 1; fill: rgb(43, 111, 201); fill-opacity: 1; stroke: rgb(4, 4, 4); stroke-opacity: 1;"/><g class="slicetext"><text data-notex="1" class="slicetext" transform="translate(511.42145056469946,476.9628309923942)scale(0.27707247242024063)rotate(57.128712871287235)" text-anchor="middle" x="0" y="0" style="font-family: 'Open Sans'; font-size: 16px; fill: rgb(255, 255, 255); fill-opacity: 1; white-space: pre;"><tspan class="line" dy="0em" x="0" y="0">Go</tspan><tspan class="line" dy="1.3em" x="0" y="0">0.77%</tspan></text></g></g><g class="slice"><path class="surface" d="M401.0528827311873,305.8921320319329a52.5,52.5 0 0 0 1.773681243669347,-1.2626128140588493l125.30625589942652,168.518076871496a262.5,262.5 0 0 1 -8.868406218346735,6.313064070294246Z" style="pointer-events: none; stroke-width: 1; fill: rgb(34, 126, 174); fill-opacity: 1; stroke: rgb(4, 4, 4); stroke-opacity: 1;"/><g class="slicetext"><text data-notex="1" class="slicetext" transform="translate(521.3032031507447,471.27451677006536)scale(0.2391513858603393)rotate(54.554455445544704)" text-anchor="middle" x="0" y="0" style="font-family: 'Open Sans'; font-size: 16px; fill: rgb(255, 255, 255); fill-opacity: 1; white-space: pre;"><tspan class="line" dy="0em" x="0" y="0">PHP</tspan><tspan class="line" dy="1.3em" x="0" y="0">0.66%</tspan></text></g></g></g></g><g class="iciclelayer"/><g class="treemaplayer"/><g class="sunburstlayer"/><g class="glimages"/><defs id="topdefs-531c70"><g class="clips"/></defs><g class="layer-above"><g class="imagelayer"/><g class="shapelayer"/></g><g class="infolayer"><g class="g-gtitle"/></g></svg>